<mxfile host="drawio-plugin" modified="2022-07-29T22:44:08.772Z" agent="5.0 (Macintosh; Intel Mac OS X 12_1_0) AppleWebKit/537.36 (KHTML, like Gecko) Chrome/89.0.4389.114 Safari/537.36" version="15.5.4" etag="frXCslZ2cJ-RYIcurhmE" type="embed"><diagram id="lKT0S-oukDyWF4fce_Ty" name="Page-1"><mxGraphModel dx="564" dy="669" grid="1" gridSize="10" guides="1" tooltips="1" connect="1" arrows="1" fold="1" page="1" pageScale="1" pageWidth="850" pageHeight="1100" math="0" shadow="0"><root><mxCell id="0"/><mxCell id="1" parent="0"/><mxCell id="2" value="Shard 1&lt;br&gt;Replica 1" style="shape=cylinder3;whiteSpace=wrap;html=1;boundedLbl=1;backgroundOutline=1;size=15;" vertex="1" parent="1"><mxGeometry x="100" y="160" width="130" height="130" as="geometry"/></mxCell><mxCell id="3" value="Shard 2&lt;br&gt;Replica 1" style="shape=cylinder3;whiteSpace=wrap;html=1;boundedLbl=1;backgroundOutline=1;size=15;" vertex="1" parent="1"><mxGeometry x="340" y="160" width="130" height="130" as="geometry"/></mxCell><mxCell id="4" value="Shard 1&lt;br&gt;Replica 2" style="shape=cylinder3;whiteSpace=wrap;html=1;boundedLbl=1;backgroundOutline=1;size=15;" vertex="1" parent="1"><mxGeometry x="100" y="340" width="130" height="130" as="geometry"/></mxCell><mxCell id="5" value="Shard 1&lt;br&gt;Replica 1" style="shape=cylinder3;whiteSpace=wrap;html=1;boundedLbl=1;backgroundOutline=1;size=15;" vertex="1" parent="1"><mxGeometry x="340" y="340" width="130" height="130" as="geometry"/></mxCell></root></mxGraphModel></diagram></mxfile>